<svg xmlns="http://www.w3.org/2000/svg" xmlns:xlink="http://www.w3.org/1999/xlink" width="131.16" height="39.42" viewBox="0 0 131.16 39.42">
  <defs>
    <linearGradient id="linear-gradient" x1="0.5" x2="0.5" y2="1" gradientUnits="objectBoundingBox">
      <stop offset="0" stop-color="#cb04de"/>
      <stop offset="1" stop-color="#8600ff"/>
    </linearGradient>
  </defs>
  <path id="Path_21" data-name="Path 21" d="M66.8,64,84.98,28.66h5.88L72.68,64Zm6.72-25.74a11.653,11.653,0,0,1-2.04,7.2,6.5,6.5,0,0,1-5.46,2.7,6.76,6.76,0,0,1-5.64-2.61,11.47,11.47,0,0,1-2.04-7.23,10.557,10.557,0,0,1,2.07-6.9,6.878,6.878,0,0,1,5.61-2.52,6.621,6.621,0,0,1,5.4,2.61A10.432,10.432,0,0,1,73.52,38.26Zm-4.38.12a7.672,7.672,0,0,0-.93-3.93,2.482,2.482,0,0,0-4.62-.03,7.636,7.636,0,0,0-.93,3.96,8.784,8.784,0,0,0,.9,4.23,2.484,2.484,0,0,0,4.68,0A8.784,8.784,0,0,0,69.14,38.38Zm29.82,15.9a11.653,11.653,0,0,1-2.04,7.2,6.5,6.5,0,0,1-5.46,2.7,6.731,6.731,0,0,1-5.64-2.64,11.494,11.494,0,0,1-2.04-7.2,10.682,10.682,0,0,1,2.07-6.93,6.844,6.844,0,0,1,5.61-2.55,6.594,6.594,0,0,1,5.4,2.64A10.557,10.557,0,0,1,98.96,54.28Zm-4.44.12a7.878,7.878,0,0,0-.9-3.93,2.626,2.626,0,0,0-2.28-1.59A2.667,2.667,0,0,0,89,50.41a7.806,7.806,0,0,0-.9,3.99,8.784,8.784,0,0,0,.9,4.23,2.661,2.661,0,0,0,2.34,1.65,2.628,2.628,0,0,0,2.28-1.65A8.784,8.784,0,0,0,94.52,54.4Zm24.9-28.38V64h-7.86V34.96q-.84.54-2.46,1.5-2.34,1.38-3.36,2.1-.78-1.32-2.64-4.38l-.36-.54q-.42-.78-.66-1.14,1.92-1.38,6.06-4.14,2.16-1.44,3.42-2.34Zm21.6-.72q6.96,0,11.16,6.66a23.815,23.815,0,0,1,3.54,13.14q0,9.18-4.5,14.7a12.5,12.5,0,0,1-10.2,4.92q-7.14,0-11.16-6.36-3.36-5.28-3.36-13.26,0-8.88,4.44-14.58A12.25,12.25,0,0,1,141.02,25.3Zm.12,6.72q-6.48,0-6.48,12.72,0,6.42,1.86,10.08,1.68,3.3,4.44,3.3,3.06,0,4.83-3.57t1.77-9.81Q147.56,32.02,141.14,32.02ZM174.8,25.3q6.96,0,11.16,6.66A23.815,23.815,0,0,1,189.5,45.1q0,9.18-4.5,14.7a12.5,12.5,0,0,1-10.2,4.92q-7.14,0-11.16-6.36-3.36-5.28-3.36-13.26,0-8.88,4.44-14.58A12.25,12.25,0,0,1,174.8,25.3Zm.12,6.72q-6.48,0-6.48,12.72,0,6.42,1.86,10.08,1.68,3.3,4.44,3.3,3.06,0,4.83-3.57t1.77-9.81Q181.34,32.02,174.92,32.02Z" transform="translate(-58.34 -25.3)" fill="url(#linear-gradient)"/>
</svg>
