<svg xmlns="http://www.w3.org/2000/svg" xmlns:xlink="http://www.w3.org/1999/xlink" width="148.74" height="39.42" viewBox="0 0 148.74 39.42">
  <defs>
    <linearGradient id="linear-gradient" x1="0.5" x2="0.5" y2="1" gradientUnits="objectBoundingBox">
      <stop offset="0" stop-color="#ba04d3"/>
      <stop offset="1" stop-color="#8a00fb"/>
    </linearGradient>
  </defs>
  <path id="Path_32" data-name="Path 32" d="M33.01,26.02V64H25.15V34.96q-.84.54-2.46,1.5-2.34,1.38-3.36,2.1-.78-1.32-2.64-4.38l-.36-.54q-.42-.78-.66-1.14,1.92-1.38,6.06-4.14,2.16-1.44,3.42-2.34Zm15.12,15q2.04-1.86,6.06-1.86a11.931,11.931,0,0,1,8.64,3.12q3.36,3.24,3.36,9.42a13.178,13.178,0,0,1-3.42,9.06,12.157,12.157,0,0,1-9.54,3.96q-7.86,0-11.1-6.9a26.331,26.331,0,0,1-2.04-11.1q0-21.42,14.58-21.42a16.156,16.156,0,0,1,5.61,1.05,12.818,12.818,0,0,1,4.53,2.67l-2.7,4.92a16.733,16.733,0,0,0-7.2-1.92,5.87,5.87,0,0,0-4.92,2.46A10.576,10.576,0,0,0,48.13,41.02Zm-.06,5.58a39.472,39.472,0,0,0,1.02,8.52q1.14,3.48,4.02,3.48a4.144,4.144,0,0,0,3.42-2.04,8.21,8.21,0,0,0,1.44-4.86q0-6.9-5.52-6.9A5.962,5.962,0,0,0,48.07,46.6ZM85.69,25.3q6.96,0,11.16,6.66a23.815,23.815,0,0,1,3.54,13.14q0,9.18-4.5,14.7a12.5,12.5,0,0,1-10.2,4.92q-7.14,0-11.16-6.36-3.36-5.28-3.36-13.26,0-8.88,4.44-14.58A12.25,12.25,0,0,1,85.69,25.3Zm.12,6.72q-6.48,0-6.48,12.72,0,6.42,1.86,10.08,1.68,3.3,4.44,3.3,3.06,0,4.83-3.57t1.77-9.81Q92.23,32.02,85.81,32.02Zm33.66-6.72q6.96,0,11.16,6.66a23.815,23.815,0,0,1,3.54,13.14q0,9.18-4.5,14.7a12.5,12.5,0,0,1-10.2,4.92q-7.14,0-11.16-6.36-3.36-5.28-3.36-13.26,0-8.88,4.44-14.58A12.25,12.25,0,0,1,119.47,25.3Zm.12,6.72q-6.48,0-6.48,12.72,0,6.42,1.86,10.08,1.68,3.3,4.44,3.3,3.06,0,4.83-3.57t1.77-9.81Q126.01,32.02,119.59,32.02Zm28.26,21.42h-9.48v-6h9.48V36.76h7.02V47.44h9.54v6h-9.54V64h-7.02Z" transform="translate(-15.67 -25.3)" fill="url(#linear-gradient)"/>
</svg>
