<svg aria-hidden="true" style="position: absolute; width: 0; height: 0; overflow: hidden;" version="1.1" xmlns="http://www.w3.org/2000/svg" xmlns:xlink="http://www.w3.org/1999/xlink">
<defs>
<symbol id="icon-logo" data-name="Group 1" xmlns="http://www.w3.org/2000/svg" xmlns:xlink="http://www.w3.org/1999/xlink" width="169.434" height="40.693" viewBox="0 0 169.434 40.693">
  <defs>
    <clipPath id="clip-path">
      <rect id="Rectangle_1841" data-name="Rectangle 1841" width="169.434" height="40.693" fill="none"/>
    </clipPath>
  </defs>
  <text id="G" transform="translate(34.621 34.269)" fill="#7cdd0a" font-size="7" font-family="JosefinSans-Bold, Josefin Sans" font-weight="700"><tspan x="0" y="0">G</tspan></text>
  <text id="U" transform="translate(41.534 34.269)" fill="#7cdd0a" font-size="7" font-family="JosefinSans-Bold, Josefin Sans" font-weight="700"><tspan x="0" y="0">U</tspan></text>
  <text id="L" transform="translate(48.218 33.269)" fill="#7cdd0a" font-size="5" font-family="JosefinSans-Bold, Josefin Sans" font-weight="700"><tspan x="0" y="0">L</tspan></text>
  <text id="F-" transform="translate(54.062 34.269)" fill="#7cdd0a" font-size="7" font-family="JosefinSans-Bold, Josefin Sans" font-weight="700"><tspan x="0" y="0" letter-spacing="0.02em">F</tspan><tspan y="0">-</tspan></text>
  <text id="T" transform="translate(62.425 33.269)" fill="#7cdd0a" font-size="5" font-family="JosefinSans-Bold, Josefin Sans" font-weight="700"><tspan x="0" y="0">T</tspan></text>
  <text id="A" transform="translate(67.632 34.269)" fill="#7cdd0a" font-size="6" font-family="JosefinSans-Bold, Josefin Sans" font-weight="700"><tspan x="0" y="0">A</tspan></text>
  <text id="D" transform="translate(74.139 34.269)" fill="#7cdd0a" font-size="7" font-family="JosefinSans-Bold, Josefin Sans" font-weight="700"><tspan x="0" y="0">D</tspan></text>
  <text id="A-2" data-name="A" transform="translate(81.123 34.269)" fill="#7cdd0a" font-size="6" font-family="JosefinSans-Bold, Josefin Sans" font-weight="700"><tspan x="0" y="0">A</tspan></text>
  <text id="W" transform="translate(86.967 34.269)" fill="#7cdd0a" font-size="7" font-family="JosefinSans-Bold, Josefin Sans" font-weight="700"><tspan x="0" y="0">W</tspan></text>
  <text id="U-2" data-name="U" transform="translate(96.365 34.269)" fill="#7cdd0a" font-size="7" font-family="JosefinSans-Bold, Josefin Sans" font-weight="700"><tspan x="0" y="0">U</tspan></text>
  <text id="L.COM" transform="translate(103.048 34.269)" fill="#7cdd0a" font-size="7" font-family="JosefinSans-Bold, Josefin Sans" font-weight="700"><tspan x="0" y="0" letter-spacing="0.02em">L</tspan><tspan y="0" letter-spacing="0.019em">.</tspan><tspan y="0" letter-spacing="0.02em">CO</tspan><tspan y="0">M</tspan></text>
  <rect id="Rectangle_1833" data-name="Rectangle 1833" width="2.891" height="3.632" transform="translate(15.993 23.296)" fill="#fff"/>
  <rect id="Rectangle_1834" data-name="Rectangle 1834" width="2.891" height="3.632" transform="translate(20.055 23.296)" fill="#fff"/>
  <rect id="Rectangle_1835" data-name="Rectangle 1835" width="3.704" height="3.847" transform="translate(40.101 3.369)" fill="#fff"/>
  <rect id="Rectangle_1836" data-name="Rectangle 1836" width="4.11" height="16.439" transform="translate(59.766 4.946)" fill="#fff"/>
  <g id="Group_2" data-name="Group 2">
    <g id="Group_1-2" data-name="Group 1" clip-path="url(#clip-path)">
      <path id="Path_8" data-name="Path 8" d="M301,42.238a6.489,6.489,0,0,1-2.64-2.21,5.252,5.252,0,0,1-.932-2.987,60.609,60.609,0,0,1,.788-6.5l3.847.215q-.215,1.458-.454,3.345t-.239,2.461a2.369,2.369,0,0,0,.418,1.326,3.042,3.042,0,0,0,1.195,1.027,3.823,3.823,0,0,0,1.756.394,3.528,3.528,0,0,0,1.78-.418,2.765,2.765,0,0,0,1.075-1.039,2.5,2.5,0,0,0,.346-1.219V20.7h4.11V37.065a5.579,5.579,0,0,1-.812,2.879,6.081,6.081,0,0,1-2.437,2.246,8.13,8.13,0,0,1-3.894.872A8.881,8.881,0,0,1,301,42.238" transform="translate(-226.361 -15.752)" fill="#fff"/>
      <path id="Path_9" data-name="Path 9" d="M381.123,50.778a7.262,7.262,0,0,1-1.458,3.333,4.541,4.541,0,0,1-3.906,1.661,28.518,28.518,0,0,1-4.54-.526V51.518a38.2,38.2,0,0,0,4.133.5,1.64,1.64,0,0,0,1.41-.5,2.86,2.86,0,0,0,.334-1.673H374.8a5.754,5.754,0,0,1-3.477-.884,4.034,4.034,0,0,1-1.541-2.115,9.859,9.859,0,0,1-.358-2.76,9.531,9.531,0,0,1,.777-4.349,3.769,3.769,0,0,1,1.983-1.9,8.628,8.628,0,0,1,2.951-.442,26.21,26.21,0,0,1,3.345.215q1.672.215,2.867.478v9.247a25.572,25.572,0,0,1-.227,3.441M374,45.521a2.251,2.251,0,0,0,1.8.573h1.434V41.2q-.765-.048-1.41-.048a3.827,3.827,0,0,0-1.1.143,1.533,1.533,0,0,0-.836.729,3.544,3.544,0,0,0-.358,1.8,2.643,2.643,0,0,0,.466,1.7" transform="translate(-281.157 -28.461)" fill="#fff"/>
      <rect id="Rectangle_1837" data-name="Rectangle 1837" width="4.11" height="16.439" transform="translate(102.798 4.946)" fill="#fff"/>
      <path id="Path_10" data-name="Path 10" d="M477.645,37.67v8.2h-6.212v-.072a12.559,12.559,0,0,0-.777-4.635,6.52,6.52,0,0,0-2.258-3.011,5.992,5.992,0,0,0-3.56-1.051,22.443,22.443,0,0,0-4.11.55l.311,3.273h2.748a3.145,3.145,0,0,1,2.437,1.171,5.921,5.921,0,0,1,1.1,3.775h-7.6v3.751h22.03V37.67Z" transform="translate(-349.879 -28.233)" fill="#fff"/>
      <rect id="Rectangle_1838" data-name="Rectangle 1838" width="2.891" height="3.632" transform="translate(126.405 3.583)" fill="#fff"/>
      <rect id="Rectangle_1839" data-name="Rectangle 1839" width="2.891" height="3.632" transform="translate(130.467 3.583)" fill="#fff"/>
      <path id="Path_11" data-name="Path 11" d="M52.335,20.7V33.386H47.1V28.8a5.287,5.287,0,0,0-.406-2.115,2.647,2.647,0,0,0-1.374-1.278,6.86,6.86,0,0,0-2.784-.454,27.935,27.935,0,0,0-3.273.227,19.582,19.582,0,0,0-3.106.585l.1,2.652h3.632q1.123,0,1.505-.024a1.525,1.525,0,0,1,1.29.43,2.41,2.41,0,0,1,.311,1.386v3.178H32.217V20.7h-4.11V33.386H21.56v-8.2h-4.11v8.2H14.089l-2.141-.011V28.787a5.146,5.146,0,0,0-.418-2.115,2.7,2.7,0,0,0-1.386-1.278,6.791,6.791,0,0,0-2.76-.454,28.1,28.1,0,0,0-3.3.227,19.606,19.606,0,0,0-3.106.585L1.1,28.4H4.732q1.1,0,1.482-.024a1.563,1.563,0,0,1,1.3.43A2.339,2.339,0,0,1,7.838,30.2v3.441a28.906,28.906,0,0,0-3.13-.239A5.08,5.08,0,0,0,.825,34.785C-.043,35.709,0,42.972,0,44.629a6.351,6.351,0,0,0,1.457,4.385A5.129,5.129,0,0,0,5.5,50.65c.43,0,26.689.215,27.167.167l-.072-4.11c-.749,0-27.344-.334-27.956-.334-.53,0-.55-.86-.55-1.434,0-.621-.286-7.085.1-7.443a2.111,2.111,0,0,1,1.505-.538q.406,0,.992.048t1.159.119l6.251.035,11.079-.024H56.445V20.7Z" transform="translate(0 -15.752)" fill="#fff"/>
      <rect id="Rectangle_1840" data-name="Rectangle 1840" width="2.891" height="3.441" transform="translate(8.793 23.405)" fill="#fff"/>
      <path id="Path_12" data-name="Path 12" d="M571.569,18.185l-1.714-1.714a.992.992,0,0,1,0-1.4L584.633.291a.992.992,0,0,1,1.4,0L587.75,2a.992.992,0,0,1,0,1.4L572.972,18.185a.992.992,0,0,1-1.4,0" transform="translate(-433.474 0)" fill="#c6ff82"/>
      <path id="Path_13" data-name="Path 13" d="M614.962,20.3l-1.791-1.791a.937.937,0,0,1,0-1.325L626.177,4.18a.937.937,0,0,1,1.325,0l1.791,1.791a.937.937,0,0,1,0,1.325L616.287,20.3a.937.937,0,0,1-1.325,0" transform="translate(-466.451 -2.972)" fill="#9feb46"/>
      <path id="Path_14" data-name="Path 14" d="M611.127,57l-1.714-1.714a.992.992,0,0,1,0-1.4l14.777-14.778a.992.992,0,0,1,1.4,0l1.714,1.714a.992.992,0,0,1,0,1.4L612.53,57a.992.992,0,0,1-1.4,0" transform="translate(-463.58 -29.545)" fill="#7cdd0a"/>
      <path id="Path_15" data-name="Path 15" d="M595.651,97.92l-1.714-1.714a.992.992,0,0,1,0-1.4l18.938-18.938a.992.992,0,0,1,1.4,0l1.714,1.714a.992.992,0,0,1,0,1.4L597.054,97.92a.992.992,0,0,1-1.4,0" transform="translate(-451.802 -57.517)" fill="#78cc0b"/>
      <path id="Path_16" data-name="Path 16" d="M592.607,75.35l3.609-3.609L594.4,69.926l-4.361,4.361V87.063H592.4l2.566-2.566h-2.359Z" transform="translate(-449.058 -53.218)" fill="#fff"/>
      <path id="Path_17" data-name="Path 17" d="M654.726,22.579l-2.566,2.566h5.526V48.463H647.479l-2.566,2.565h15.339V22.579Z" transform="translate(-490.819 -17.184)" fill="#fff"/>
    </g>
  </g>
</symbol>
<symbol id="icon-checkmark" viewBox="0 0 32 32">
<path d="M27 4l-15 15-7-7-5 5 12 12 20-20z"></path>
</symbol>
</defs>
</svg>

