<svg aria-hidden="true" style="position: absolute; width: 0; height: 0; overflow: hidden;" version="1.1" xmlns="http://www.w3.org/2000/svg" xmlns:xlink="http://www.w3.org/1999/xlink">
<defs>
<symbol id="icon-path" viewBox="0 0 36 32">
<path d="M16.129 24.478l-3.547-3.536v11.058h8.24v-11.89zM1.952 24.773v7.227h8.239v-13.441l-0.613-0.613zM23.313 17.787v14.213h8.24v-20.831l-0.505-0.585zM26.24 2.537l2.281 2.265-12.357 11.508-6.534-6.509-9.63 8.617 1.95 2.179 7.573-6.778 6.572 6.55 14.502-13.506 2.501 2.484 2.47-9.347z"></path>
</symbol>
<symbol id="icon-delivery" viewBox="0 0 48 32">
<path d="M13.499 22.055c-0 0-0 0-0.001 0-2.746 0-4.973 2.226-4.973 4.973s2.226 4.973 4.973 4.973c2.746 0 4.972-2.226 4.973-4.972v-0c-0.003-2.745-2.227-4.969-4.972-4.973h-0zM13.499 29.851c-1.56 0-2.824-1.264-2.824-2.824s1.264-2.824 2.824-2.824c1.56 0 2.824 1.264 2.824 2.824 0 0 0 0 0 0.001v-0c-0.003 1.558-1.265 2.821-2.824 2.823h-0z"></path>
<path d="M40.759 22.055c-2.746 0-4.972 2.227-4.972 4.973s2.226 4.973 4.973 4.973c2.746 0 4.972-2.226 4.973-4.972v-0c-0.003-2.745-2.228-4.97-4.973-4.973h-0zM40.759 29.851c-1.559-0-2.823-1.264-2.823-2.824s1.264-2.824 2.824-2.824 2.824 1.264 2.824 2.824c0 0 0 0 0 0.001v-0c-0.003 1.559-1.266 2.821-2.824 2.823h-0z"></path>
<path d="M46.52 0h-22.865c-0.964 0-1.745 0.781-1.745 1.745v20.511h-1.745v-17.803c-0-0.482-0.391-0.873-0.874-0.874h-9.371c-1.102 0.061-2.058 0.635-2.64 1.486l-0.008 0.012-5.239 8.73c-0.52 0.937-0.847 2.046-0.898 3.227l-0.001 0.015v5.207h-0.262c-0.482 0.001-0.872 0.391-0.873 0.873v3.026c0 0.482 0.391 0.872 0.873 0.872h6.58c0-3.34 2.707-6.047 6.047-6.047s6.047 2.707 6.047 6.047v0h15.163c0.048-3.303 2.737-5.963 6.047-5.963s5.999 2.659 6.047 5.958l0 0.005h1.458v-25.282c0-0.964-0.781-1.745-1.745-1.745v0zM18.413 13.705c0 0 0 0 0 0.001 0 0.482-0.39 0.872-0.872 0.873h-13.062c-0.481 0-0.672-0.335-0.421-0.749l4.716-7.855c0.276-0.35 0.679-0.59 1.139-0.649l0.009-0.001h7.622c0.481 0.002 0.869 0.392 0.869 0.873 0 0 0 0.001 0 0.001v-0z"></path>
</symbol>
<symbol id="icon-speed" viewBox="0 0 56 32">
<path d="M27.872 0c0.009 0 0.021-0 0.032-0 8.072 0 15.341 3.441 20.419 8.937l0.017 0.019-6.967 3.503c-3.586-3.154-8.32-5.079-13.503-5.079-11.316 0-20.49 9.174-20.49 20.49 0 0.001 0 0.002 0 0.003v-0c0 2.038-1.652 3.69-3.69 3.69s-3.69-1.652-3.69-3.69v0c0-0.032 0-0.064 0-0.095 0.054-15.352 12.512-27.777 27.872-27.777 0 0 0.001 0 0.001 0h-0zM51.863 13.68c2.43 4.030 3.871 8.894 3.881 14.094v0.003c0 0.032 0 0.064 0 0.095 0 2.038-1.652 3.69-3.69 3.69s-3.69-1.652-3.69-3.69v0c0-0.011 0-0.024 0-0.036 0-3.216-0.744-6.258-2.069-8.963l0.053 0.12z"></path>
<path d="M25.889 22.833l27.487-13.822-22.051 21.236c-0.878 1.072-2.201 1.75-3.683 1.75-2.624 0-4.75-2.127-4.75-4.75 0-1.992 1.226-3.697 2.964-4.403l0.032-0.011z"></path>
</symbol>
<symbol id="icon-money" viewBox="0 0 24 32">
<path d="M20.075 25.881c-4.593 2.652-12.038 2.652-16.631 0-2.296-1.326-3.445-3.064-3.445-4.801v4.13c0 1.737 1.149 3.475 3.445 4.801 4.593 2.652 12.037 2.652 16.631 0 2.296-1.326 3.443-3.063 3.443-4.801v-4.13c0 1.737-1.147 3.475-3.443 4.801z"></path>
<path d="M20.075 13.889c-4.593 2.652-12.038 2.652-16.631 0-2.296-1.326-3.445-3.062-3.445-4.801v4.13c0 1.737 1.149 3.475 3.445 4.801 4.593 2.652 12.037 2.652 16.631 0 2.296-1.326 3.443-3.063 3.443-4.801v-4.13c0 1.737-1.147 3.475-3.443 4.801z"></path>
<path d="M20.075 19.885c-4.593 2.65-12.038 2.65-16.631 0-2.296-1.326-3.445-3.064-3.445-4.801v4.13c0 1.737 1.149 3.477 3.445 4.801 4.593 2.652 12.037 2.652 16.631 0 2.296-1.324 3.443-3.063 3.443-4.801v-4.13c0 1.737-1.147 3.475-3.443 4.801z"></path>
<path d="M3.446 11.588c4.593 2.65 12.035 2.65 16.631 0s4.593-6.951 0-9.603-12.040-2.65-16.631 0-4.593 6.951 0 9.603z"></path>
</symbol>
<symbol id="icon-bonus" viewBox="0 0 22 32">
<path d="M20.569 17.656c-0.93-1.131-2.188-1.961-3.628-2.348l-0.049-0.011c1.093-0.425 1.991-1.153 2.614-2.081l0.013-0.020c0.562-0.861 0.897-1.915 0.897-3.047 0-0.024-0-0.049-0-0.073l0 0.004c0-0.021 0-0.047 0-0.072 0-1.483-0.572-2.833-1.508-3.84l0.003 0.004c-0.883-1.024-2.074-1.761-3.428-2.066l-0.043-0.008c-0.451-0.096-1.016-0.181-1.589-0.235l-0.064-0.005v-3.856h-2.729v3.704q-0.719-0.017-1.518-0.017h-0.775v-3.687h-2.729v3.687h-6.035v3.721h2.885c0.352 0 0.637 0.285 0.637 0.637v0 16.029c0 0 0 0 0 0 0 0.352-0.285 0.637-0.636 0.637l-2.886 0.006v3.74h6.033v3.543h2.729v-3.543h0.984c0.458 0 0.895-0.004 1.312-0.013v3.557h2.729v-3.698q0.596-0.056 1.097-0.131c1.296-0.191 2.465-0.578 3.533-1.133l-0.062 0.029c1.053-0.544 1.913-1.331 2.529-2.289l0.016-0.026c0.601-0.923 0.958-2.053 0.958-3.267 0-0.022-0-0.044-0-0.067l0 0.003c0-0.021 0-0.045 0-0.069 0-1.403-0.485-2.692-1.297-3.709l0.009 0.012zM10.793 7.407q4.583 0 4.583 2.916c0.003 0.051 0.005 0.11 0.005 0.17 0 0.851-0.396 1.61-1.014 2.101l-0.005 0.004q-1.014 0.773-3.57 0.773h-2.232v-5.965zM15.969 23.381c-0.527 0.567-1.232 0.962-2.026 1.096l-0.021 0.003c-1.015 0.153-2.186 0.24-3.378 0.24-0.201 0-0.402-0.003-0.603-0.007l0.030 0.001h-1.373v-7.010h2.089c0.12-0.003 0.26-0.005 0.402-0.005 1.049 0 2.074 0.103 3.066 0.3l-0.1-0.017c0.777 0.169 1.443 0.564 1.947 1.111l0.002 0.003c0.471 0.523 0.759 1.218 0.759 1.981 0 0.031-0 0.062-0.001 0.092l0-0.005c0.002 0.037 0.002 0.081 0.002 0.124 0 0.805-0.301 1.54-0.797 2.098l0.003-0.003z"></path>
</symbol>
<symbol id="icon-logo" viewBox="0 0 133 32">
<path fill="#fff" style="fill: var(--color1, #fff)" d="M12.576 18.319h2.273v2.856h-2.273v-2.856z"></path>
<path fill="#fff" style="fill: var(--color1, #fff)" d="M15.771 18.319h2.273v2.856h-2.273v-2.856z"></path>
<path fill="#fff" style="fill: var(--color1, #fff)" d="M31.534 2.649h2.913v3.025h-2.913v-3.025z"></path>
<path fill="#fff" style="fill: var(--color1, #fff)" d="M46.999 3.889h3.232v12.927h-3.232v-12.927z"></path>
<path fill="#fff" style="fill: var(--color1, #fff)" d="M58.694 20.828c-0.851-0.395-1.552-0.987-2.065-1.721l-0.011-0.017c-0.459-0.656-0.733-1.47-0.733-2.349 0-0 0-0 0-0v0c0.131-1.928 0.351-3.681 0.664-5.402l-0.044 0.291 3.025 0.169q-0.169 1.147-0.357 2.63t-0.188 1.935c0.003 0.39 0.126 0.751 0.333 1.049l-0.004-0.006c0.238 0.345 0.555 0.62 0.926 0.801l0.014 0.006c0.388 0.196 0.846 0.31 1.33 0.31 0.018 0 0.036-0 0.053-0l-0.003 0c0.026 0.001 0.057 0.001 0.087 0.001 0.481 0 0.933-0.122 1.327-0.337l-0.015 0.007c0.354-0.194 0.641-0.471 0.84-0.807l0.006-0.010c0.164-0.274 0.265-0.604 0.272-0.956l0-0.002v-12.529h3.232v12.869c-0.003 0.837-0.24 1.619-0.649 2.283l0.011-0.019c-0.468 0.755-1.118 1.356-1.89 1.754l-0.027 0.013c-0.84 0.434-1.833 0.688-2.885 0.688-0.062 0-0.124-0.001-0.186-0.003l0.009 0c-0.039 0.001-0.086 0.001-0.132 0.001-1.067 0-2.078-0.239-2.983-0.667l0.042 0.018z"></path>
<path fill="#fff" style="fill: var(--color1, #fff)" d="M78.611 17.55c-0.165 1.004-0.571 1.893-1.156 2.633l0.009-0.012c-0.66 0.807-1.656 1.319-2.771 1.319-0.106 0-0.21-0.005-0.314-0.014l0.013 0.001c-1.294-0.047-2.521-0.195-3.714-0.438l0.144 0.025v-2.932c0.911 0.171 2.026 0.311 3.158 0.388l0.093 0.005c0.051 0.007 0.111 0.011 0.171 0.011 0.369 0 0.702-0.155 0.937-0.404l0.001-0.001c0.173-0.311 0.275-0.683 0.275-1.078 0-0.084-0.005-0.166-0.013-0.248l0.001 0.010h-1.806c-0.092 0.007-0.199 0.010-0.308 0.010-0.9 0-1.739-0.263-2.444-0.716l0.018 0.011c-0.569-0.402-0.995-0.974-1.206-1.641l-0.006-0.022c-0.179-0.621-0.282-1.335-0.282-2.072 0-0.034 0-0.069 0.001-0.103l-0 0.005c-0.008-0.128-0.012-0.277-0.012-0.428 0-1.082 0.229-2.111 0.642-3.040l-0.019 0.048c0.319-0.677 0.866-1.203 1.54-1.487l0.019-0.007c0.642-0.222 1.381-0.35 2.15-0.35 0.060 0 0.12 0.001 0.179 0.002l-0.009-0c0.928 0 1.841 0.062 2.736 0.18l-0.105-0.011q1.315 0.169 2.255 0.376v7.272c0 0.010 0 0.021 0 0.032 0 0.943-0.065 1.871-0.19 2.779l0.012-0.105zM73.010 13.416c0.314 0.288 0.734 0.464 1.195 0.464 0.078 0 0.154-0.005 0.229-0.015l-0.009 0.001h1.128v-3.849q-0.602-0.038-1.109-0.038c-0.014-0-0.032-0-0.049-0-0.291 0-0.572 0.041-0.838 0.118l0.021-0.005c-0.286 0.106-0.516 0.308-0.654 0.567l-0.003 0.007c-0.181 0.36-0.287 0.784-0.287 1.233 0 0.064 0.002 0.128 0.006 0.191l-0-0.009c-0.003 0.045-0.005 0.097-0.005 0.15 0 0.444 0.139 0.855 0.376 1.193l-0.004-0.007z"></path>
<path fill="#fff" style="fill: var(--color1, #fff)" d="M80.838 3.889h3.232v12.927h-3.232v-12.927z"></path>
<path fill="#fff" style="fill: var(--color1, #fff)" d="M100.472 7.421v6.448h-4.885v-0.057c0.002-0.065 0.002-0.142 0.002-0.218 0-1.23-0.225-2.408-0.636-3.494l0.023 0.068c-0.361-0.969-0.975-1.774-1.762-2.358l-0.014-0.010c-0.746-0.518-1.671-0.828-2.668-0.828-0.046 0-0.092 0.001-0.138 0.002l0.007-0c-1.172 0.049-2.281 0.204-3.352 0.456l0.12-0.024 0.245 2.574h2.161c0.773 0.003 1.461 0.36 1.913 0.916l0.004 0.005c0.545 0.753 0.872 1.695 0.872 2.713 0 0.090-0.003 0.179-0.008 0.268l0.001-0.012h-5.976v2.95h17.324v-9.398z"></path>
<path fill="#fff" style="fill: var(--color1, #fff)" d="M99.402 2.818h2.273v2.856h-2.273v-2.856z"></path>
<path fill="#fff" style="fill: var(--color1, #fff)" d="M102.596 2.818h2.273v2.856h-2.273v-2.856z"></path>
<path fill="#fff" style="fill: var(--color1, #fff)" d="M41.155 3.891v9.976h-4.117v-3.606c0-0.019 0.001-0.042 0.001-0.064 0-0.577-0.118-1.127-0.33-1.626l0.010 0.027c-0.229-0.455-0.606-0.808-1.067-1l-0.014-0.005c-0.577-0.229-1.245-0.363-1.944-0.363-0.086 0-0.172 0.002-0.257 0.006l0.012-0c-0.918 0.010-1.81 0.074-2.686 0.191l0.112-0.012c-0.919 0.099-1.748 0.261-2.551 0.486l0.108-0.026 0.079 2.085h2.856q0.883 0 1.183-0.019c0.050-0.008 0.109-0.012 0.168-0.012 0.331 0 0.63 0.134 0.847 0.35l-0-0c0.157 0.27 0.25 0.595 0.25 0.941 0 0.052-0.002 0.104-0.006 0.155l0-0.007v2.499h-8.476v-9.977h-3.232v9.976h-5.148v-6.448h-3.232v6.448h-2.643l-1.684-0.009v-3.608c0-0.019 0.001-0.042 0.001-0.064 0-0.578-0.121-1.127-0.339-1.625l0.010 0.026c-0.234-0.455-0.613-0.807-1.076-1l-0.014-0.005c-0.573-0.229-1.238-0.362-1.933-0.362-0.083 0-0.166 0.002-0.249 0.006l0.012-0c-0.925 0.009-1.824 0.074-2.707 0.191l0.112-0.012c-0.919 0.099-1.748 0.261-2.551 0.486l0.109-0.026 0.096 2.082h2.856q0.865 0 1.165-0.019c0.049-0.007 0.106-0.011 0.164-0.011 0.334 0 0.637 0.133 0.858 0.349l-0-0c0.164 0.27 0.261 0.596 0.261 0.945 0 0.053-0.002 0.106-0.007 0.158l0-0.007v2.706c-0.72-0.1-1.572-0.168-2.435-0.187l-0.026-0c-0.090-0.007-0.196-0.011-0.302-0.011-1.067 0-2.037 0.419-2.753 1.101l0.002-0.002c-0.683 0.727-0.649 6.438-0.649 7.741-0.004 0.077-0.007 0.167-0.007 0.257 0 1.217 0.435 2.332 1.159 3.199l-0.006-0.008c0.739 0.796 1.791 1.293 2.959 1.293 0.077 0 0.154-0.002 0.231-0.006l-0.011 0c0.338 0 20.988 0.169 21.363 0.131l-0.057-3.232c-0.589 0-21.503-0.263-21.984-0.263-0.417 0-0.433-0.676-0.433-1.128 0-0.488-0.225-5.571 0.079-5.853 0.293-0.264 0.682-0.425 1.109-0.425 0.026 0 0.052 0.001 0.078 0.002l-0.004-0q0.319 0 0.78 0.038t0.911 0.094l4.916 0.028 8.712-0.019h24.59v-12.925z"></path>
<path fill="#fff" style="fill: var(--color1, #fff)" d="M6.915 18.405h2.273v2.706h-2.273v-2.706z"></path>
<path fill="#c6ff82" style="fill: var(--color2, #c6ff82)" d="M108.595 14.3l-1.348-1.348c-0.141-0.141-0.227-0.336-0.227-0.55s0.087-0.409 0.227-0.55l11.621-11.623c0.141-0.141 0.336-0.227 0.55-0.227s0.409 0.087 0.55 0.227l1.35 1.344c0.141 0.141 0.227 0.336 0.227 0.55s-0.087 0.409-0.227 0.55l-11.621 11.627c-0.141 0.14-0.336 0.227-0.55 0.227s-0.409-0.087-0.55-0.227l0 0z"></path>
<path fill="#9feb46" style="fill: var(--color3, #9feb46)" d="M116.785 13.626l-1.408-1.408c-0.133-0.133-0.216-0.318-0.216-0.521s0.082-0.388 0.216-0.521l10.228-10.226c0.133-0.133 0.318-0.216 0.521-0.216s0.388 0.082 0.521 0.216l1.408 1.408c0.133 0.133 0.216 0.318 0.216 0.521s-0.082 0.388-0.216 0.521l-10.228 10.226c-0.133 0.133-0.318 0.216-0.521 0.216s-0.388-0.082-0.521-0.216v0z"></path>
<path fill="#7cdd0a" style="fill: var(--color4, #7cdd0a)" d="M116.027 21.59l-1.348-1.348c-0.141-0.141-0.227-0.336-0.227-0.55s0.087-0.409 0.227-0.55l11.62-11.621c0.141-0.141 0.336-0.227 0.55-0.227s0.409 0.087 0.55 0.227l1.348 1.348c0.141 0.141 0.227 0.336 0.227 0.55s-0.087 0.409-0.227 0.55l-11.618 11.621c-0.141 0.14-0.336 0.227-0.55 0.227s-0.409-0.087-0.55-0.227l0 0z"></path>
<path fill="#78cc0b" style="fill: var(--color5, #78cc0b)" d="M113.119 31.772l-1.348-1.348c-0.141-0.141-0.227-0.336-0.227-0.55s0.087-0.409 0.227-0.55l14.892-14.892c0.141-0.14 0.336-0.227 0.55-0.227s0.409 0.087 0.55 0.227l1.348 1.348c0.141 0.141 0.227 0.336 0.227 0.55s-0.087 0.409-0.227 0.55l-14.89 14.892c-0.141 0.14-0.336 0.227-0.55 0.227s-0.409-0.087-0.55-0.227l0 0z"></path>
<path fill="#fff" style="fill: var(--color1, #fff)" d="M112.883 17.404l2.838-2.838-1.428-1.427-3.429 3.429v10.047h1.857l2.018-2.018h-1.855z"></path>
<path fill="#fff" style="fill: var(--color1, #fff)" d="M128.893 4.242l-2.018 2.018h4.345v18.337h-8.027l-2.018 2.017h12.062v-22.372z"></path>
</symbol>
<symbol id="icon-checkmark" viewBox="0 0 32 32">
<path d="M27 4l-15 15-7-7-5 5 12 12 20-20z"></path>
</symbol>
</defs>
</svg>
