<svg xmlns="http://www.w3.org/2000/svg" xmlns:xlink="http://www.w3.org/1999/xlink" width="101.46" height="39.48" viewBox="0 0 101.46 39.48">
  <defs>
    <linearGradient id="linear-gradient" x1="0.5" x2="0.5" y2="1" gradientUnits="objectBoundingBox">
      <stop offset="0" stop-color="#cb04de"/>
      <stop offset="1" stop-color="#8600ff"/>
    </linearGradient>
  </defs>

  <path id="Path_23" data-name="Path 23" d="M81.83,64l18.18-35.34h5.88L87.71,64Zm6.72-25.74a11.653,11.653,0,0,1-2.04,7.2,6.5,6.5,0,0,1-5.46,2.7,6.76,6.76,0,0,1-5.64-2.61,11.47,11.47,0,0,1-2.04-7.23,10.557,10.557,0,0,1,2.07-6.9,6.878,6.878,0,0,1,5.61-2.52,6.621,6.621,0,0,1,5.4,2.61A10.432,10.432,0,0,1,88.55,38.26Zm-4.38.12a7.672,7.672,0,0,0-.93-3.93,2.482,2.482,0,0,0-4.62-.03,7.636,7.636,0,0,0-.93,3.96,8.784,8.784,0,0,0,.9,4.23,2.484,2.484,0,0,0,4.68,0A8.784,8.784,0,0,0,84.17,38.38Zm29.82,15.9a11.653,11.653,0,0,1-2.04,7.2,6.5,6.5,0,0,1-5.46,2.7,6.731,6.731,0,0,1-5.64-2.64,11.494,11.494,0,0,1-2.04-7.2,10.682,10.682,0,0,1,2.07-6.93,6.844,6.844,0,0,1,5.61-2.55,6.594,6.594,0,0,1,5.4,2.64A10.557,10.557,0,0,1,113.99,54.28Zm-4.44.12a7.878,7.878,0,0,0-.9-3.93,2.626,2.626,0,0,0-2.28-1.59,2.667,2.667,0,0,0-2.34,1.53,7.806,7.806,0,0,0-.9,3.99,8.784,8.784,0,0,0,.9,4.23,2.661,2.661,0,0,0,2.34,1.65,2.628,2.628,0,0,0,2.28-1.65A8.784,8.784,0,0,0,109.55,54.4Zm29.1-9.72q7.86,2.1,7.86,9.72a8.988,8.988,0,0,1-4.44,8.04,16.829,16.829,0,0,1-9.06,2.28q-6.3,0-10.08-3a8.881,8.881,0,0,1-3.54-7.38,9.477,9.477,0,0,1,3.06-7.2,8.957,8.957,0,0,1,5.1-2.52q-6.54-1.98-6.54-8.34a9.887,9.887,0,0,1,4.2-8.46,13.309,13.309,0,0,1,8.22-2.52,12.627,12.627,0,0,1,9.06,3.36,10.691,10.691,0,0,1,3.3,8.04,7.305,7.305,0,0,1-2.01,5.04A9.66,9.66,0,0,1,138.65,44.68Zm-5.34-2.76a6.581,6.581,0,0,0,3.36-2.25,5.527,5.527,0,0,0,1.32-3.51,4.9,4.9,0,0,0-1.23-3.48,4.114,4.114,0,0,0-3.15-1.32,4.64,4.64,0,0,0-4.92,4.92Q128.69,40.36,133.31,41.92Zm.18,5.4a8.38,8.38,0,0,0-4.32,2.43,5.828,5.828,0,0,0-1.62,4.05,4.359,4.359,0,0,0,1.56,3.45,5.835,5.835,0,0,0,3.96,1.35,5.477,5.477,0,0,0,3.75-1.29,4.226,4.226,0,0,0,1.47-3.33,6.883,6.883,0,0,0-1.35-4.14A6.642,6.642,0,0,0,133.49,47.32ZM151.19,64V57.34q1.44-1.62,3.84-4.38,3.78-4.2,5.58-6.36a59.86,59.86,0,0,0,5.04-6.57,7.729,7.729,0,0,0,1.02-3.93,3.886,3.886,0,0,0-1.32-3,4.8,4.8,0,0,0-3.36-1.2q-3.54,0-7.8,2.88l-3.3-4.8a19.973,19.973,0,0,1,12.54-4.74,11.966,11.966,0,0,1,8.34,2.82,9.74,9.74,0,0,1,3.06,7.62,14.626,14.626,0,0,1-2.37,7.53,92.758,92.758,0,0,1-9.21,11.67q-1.68,1.92-2.46,2.82h13.62V64Z" transform="translate(-73.37 -25.24)" fill="url(#linear-gradient)"/>

</svg>
